<svg xmlns="http://www.w3.org/2000/svg"
	viewBox="0 0 16 16">
	<path d="M0 0h16v16H0z" fill="#FFD719" />
	<g fill="#FF0B80">
		<path fill-rule="nonzero"
			d="M1.76347826 7.43413043V1.15043478h.63007246l4.41050725 4.39858696V1.15043478h.63007246v6.28369565zM8.69086957 7.43413043l2.62530193-3.14184782-2.62530193-3.14184783h5.67065213l-2.6253019 3.14184783 2.6253019 3.14184782z" />
		<path stroke="#FF0B80" stroke-width=".5"
			d="M7.18413043 8.94086957v3.19876883c-.04441424.7495878-.34140426 1.3928518-.80032605 1.8505332-.46401842.4627643-1.09275244.7343936-1.78500003.7343936-.71399564 0-1.36042772-.2885704-1.82834098-.7552191-.46766805-.466404-.75698511-1.1107192-.75698511-1.8224439V8.94086957h5.17065217ZM12.5293732 8.81826087c.4944089 0 .9350004.24866285 1.2546303.64118603.2926525.3593936.4851802.8387752.5313402 1.3722922h-2.0531698V12.33184c-.0361574.6691741-.2503874 1.2407045-.5832666 1.6460921-.3205781.3904069-.752083.6240244-1.2306464.6240244-.4962821 0-.9421496-.250199-1.26619786-.6448321-.29465492-.3588372-.48981547-.8367874-.53675348-1.3686461h2.05295134v-1.4999786c.0367474-.667568.2541379-1.2378379.5894965-1.6428696.3249041-.39240527.7613469-.62736923 1.2416158-.62736923Z" />
	</g>
</svg>
